/* XPM */
static char * dockicon0_xpm[] = {
"24 23 202 2",
"  	c None",
". 	c #6C463A",
"+ 	c #AB705C",
"@ 	c #AD725D",
"# 	c #AB705D",
"$ 	c #A76C5B",
"% 	c #9B6454",
"& 	c #5E3D33",
"* 	c #9F6757",
"= 	c #B17261",
"- 	c #BE7B68",
"; 	c #CD8572",
"> 	c #D48B78",
", 	c #DF937E",
"' 	c #DE937E",
") 	c #DD927D",
"! 	c #D08773",
"~ 	c #BB7967",
"{ 	c #9D6756",
"] 	c #815447",
"^ 	c #784F41",
"/ 	c #B57663",
"( 	c #C6806E",
"_ 	c #D18F7D",
": 	c #E6BAAE",
"< 	c #F6DED6",
"[ 	c #F4ECE8",
"} 	c #C0BBBA",
"| 	c #F5EDE9",
"1 	c #FAE2DA",
"2 	c #F2C6B9",
"3 	c #E39B86",
"4 	c #C7826D",
"5 	c #986352",
"6 	c #5D3C33",
"7 	c #88584B",
"8 	c #BD7968",
"9 	c #C58270",
"0 	c #DFB9AF",
"a 	c #DCD2CF",
"b 	c #EBEBEA",
"c 	c #FDFDFB",
"d 	c #F4F4F1",
"e 	c #8A8988",
"f 	c #DDD3D0",
"g 	c #F3C7BA",
"h 	c #DE927D",
"i 	c #AA6E5D",
"j 	c #623F36",
"k 	c #925E51",
"l 	c #C07B6A",
"m 	c #C78979",
"n 	c #EDD4CC",
"o 	c #FDFCFA",
"p 	c #F9F9F6",
"q 	c #FBFBF9",
"r 	c #FDFDFC",
"s 	c #FAF9F7",
"t 	c #888887",
"u 	c #FCFCFA",
"v 	c #FAFAF8",
"w 	c #F7DBD2",
"x 	c #E49D88",
"y 	c #AC6F5E",
"z 	c #664238",
"A 	c #69433A",
"B 	c #C57E6C",
"C 	c #BF7E6C",
"D 	c #E9D3CC",
"E 	c #FEFEFC",
"F 	c #8A8A8B",
"G 	c #F7DCD4",
"H 	c #9E6656",
"I 	c #472E27",
"J 	c #CC8370",
"K 	c #BE7B69",
"L 	c #D3B3A8",
"M 	c #FCFBF9",
"N 	c #FEFEFB",
"O 	c #F2CABE",
"P 	c #CB826F",
"Q 	c #8A594B",
"R 	c #CB8370",
"S 	c #B98272",
"T 	c #D5CDCA",
"U 	c #F1F1F0",
"V 	c #D6CFCC",
"W 	c #E9A18C",
"X 	c #A56A5A",
"Y 	c #B17161",
"Z 	c #C07C69",
"` 	c #D0ACA0",
" .	c #F2C3B5",
"..	c #BF7B68",
"+.	c #7A5042",
"@.	c #D18672",
"#.	c #B67564",
"$.	c #E4D3CD",
"%.	c #F8E3DC",
"&.	c #D38873",
"*.	c #A36959",
"=.	c #D48874",
"-.	c #A76D5B",
";.	c #EFE9E5",
">.	c #F6F5F3",
",.	c #8B8B8C",
"'.	c #F6EDE9",
").	c #D88B76",
"!.	c #A96E5C",
"~.	c #A36B59",
"{.	c #CCC9C7",
"].	c #A19F9E",
"^.	c #F0F0EE",
"/.	c #B8B7B6",
"(.	c #CDC7C5",
"_.	c #DB8E79",
":.	c #D98B76",
"<.	c #A16957",
"[.	c #F7F0ED",
"}.	c #D18774",
"|.	c #AF725E",
"1.	c #DD917B",
"2.	c #AF7060",
"3.	c #DDD0CD",
"4.	c #F5DFD8",
"5.	c #CD8470",
"6.	c #AE715F",
"7.	c #C17C69",
"8.	c #C3A49A",
"9.	c #F9F9F7",
"0.	c #E8BCAF",
"a.	c #C37D6B",
"b.	c #8D5B4D",
"c.	c #D68C78",
"d.	c #A27365",
"e.	c #CECAC8",
"f.	c #F1F1EF",
"g.	c #D5CFCC",
"h.	c #D29280",
"i.	c #B67663",
"j.	c #E6957D",
"k.	c #B87764",
"l.	c #C0A8A1",
"m.	c #E3BEB3",
"n.	c #C47E6C",
"o.	c #7D5144",
"p.	c #DD8E78",
"q.	c #A46D5E",
"r.	c #DAC8C2",
"s.	c #ECD3CB",
"t.	c #C4816F",
"u.	c #B97765",
"v.	c #5B3C31",
"w.	c #B47969",
"x.	c #D08771",
"y.	c #A57465",
"z.	c #DBC7C0",
"A.	c #E7D0C9",
"B.	c #C08475",
"C.	c #865749",
"D.	c #D28772",
"E.	c #A66D5E",
"F.	c #BDA49C",
"G.	c #D3CDCA",
"H.	c #CAC8C6",
"I.	c #D5D1D0",
"J.	c #D1B2A8",
"K.	c #BE7E6C",
"L.	c #C07C6A",
"M.	c #8B594D",
"N.	c #A46D5D",
"O.	c #BD7B67",
"P.	c #A27163",
"Q.	c #BEA096",
"R.	c #DDCDC8",
"S.	c #F0ECE9",
"T.	c #DCDAD8",
"U.	c #F2ECE9",
"V.	c #E3D1CA",
"W.	c #CAA79D",
"X.	c #B57E6F",
"Y.	c #BE7C69",
"Z.	c #8C5A4D",
"`.	c #D98E78",
" +	c #DD8F79",
".+	c #C17D69",
"++	c #B57665",
"@+	c #A56E5E",
"#+	c #9C6A59",
"$+	c #A26E5D",
"%+	c #AE7363",
"&+	c #B87866",
"*+	c #C27D6A",
"=+	c #CE8571",
"-+	c #9C6555",
";+	c #E2947E",
">+	c #DA8C76",
",+	c #D88A75",
"'+	c #D58874",
")+	c #D78975",
"!+	c #D28773",
"~+	c #8E5B4D",
"                . + @ @ # $ % &                 ",
"            * = - ; > , ' ) ! ~ { ]             ",
"        ^ / ( _ : < [ } } | 1 2 3 4 5 6         ",
"      7 8 9 0 a b c d e e d c b f g h i j       ",
"    k l m n o p q r s t t s c u v o w x y z     ",
"  A B C D c E E E c c F F c c c c c c G h H I   ",
"  J K L M E E E E c c F F c c c c N E o O P Q   ",
"  R S T U E E E E c c F F c c c c c E U V W X   ",
"Y Z ` s c E E E E c c F F N c c c c E c s  ...+.",
"@.#.$.E E E E E E c c F F c c r c r E E E %.&.*.",
"=.-.;.>.c E E E E c c ,.,.c c r c c E c >.'.).!.",
"=.~.{.].^.E E E E c c /./.c r r c r E ^.].(._.@ ",
":.<.;.>.c E E E E c c M M c r c c c E c >.[.}.|.",
"1.2.3.E E E E E E c c c c c c c c c E E E 4.5.6.",
"Z 7.8.9.c E E E E c c r r c c c c c E c s 0.a.b.",
"  c.d.e.f.c c c c c c c c c c c c c c f.g.h.i.  ",
"  j.k.l.q c c c c c c c c c c c c c c M m.n.$   ",
"  o.p.q.r.c c c c c c c c c c c c c c s.t.u.v.  ",
"    w.x.y.z.u v u c c q q c c u v u A.B.a.C.    ",
"      i D.E.F.G.b c c H.H.c c b I.J.K.L.M.      ",
"        N.1.O.P.Q.R.S.T.T.U.V.W.X.Y.J Z.        ",
"            `. +.+++@+#+$+%+&+*+=+l             ",
"                -+;+>+,+'+)+!+~+                "};
