/* XPM */
static char * dockicon2_xpm[] = {
"24 23 211 2",
"  	c None",
". 	c #6C463A",
"+ 	c #AB705C",
"@ 	c #AD725D",
"# 	c #AB705D",
"$ 	c #A76C5B",
"% 	c #9B6454",
"& 	c #5E3D33",
"* 	c #9F6757",
"= 	c #B17261",
"- 	c #BE7B68",
"; 	c #CD8572",
"> 	c #D48B78",
", 	c #DD917D",
"' 	c #DD927D",
") 	c #DC917C",
"! 	c #D28975",
"~ 	c #BC7967",
"{ 	c #9E6756",
"] 	c #815447",
"^ 	c #784F41",
"/ 	c #B57663",
"( 	c #C6806E",
"_ 	c #D18F7D",
": 	c #E6BAAE",
"< 	c #F6DED6",
"[ 	c #F4ECE8",
"} 	c #C1BCBB",
"| 	c #F5EDE9",
"1 	c #FAE1D8",
"2 	c #F4C2B4",
"3 	c #E69D88",
"4 	c #C7816D",
"5 	c #986353",
"6 	c #5D3C33",
"7 	c #88584B",
"8 	c #BD7968",
"9 	c #C58270",
"0 	c #DFB9AF",
"a 	c #DCD2CF",
"b 	c #EBEBEA",
"c 	c #FDFDFB",
"d 	c #F4F4F1",
"e 	c #8B8A89",
"f 	c #DDD3D0",
"g 	c #F6C9BB",
"h 	c #DF937E",
"i 	c #AA6E5D",
"j 	c #623F36",
"k 	c #925E51",
"l 	c #C07B6A",
"m 	c #C78979",
"n 	c #EDD4CC",
"o 	c #FDFCFA",
"p 	c #F9F9F6",
"q 	c #FBFBF9",
"r 	c #FDFDFC",
"s 	c #FAF9F7",
"t 	c #D0CDCC",
"u 	c #CECAC9",
"v 	c #FCFCFA",
"w 	c #FAFAF8",
"x 	c #F6DBD2",
"y 	c #E59D89",
"z 	c #AC6F5E",
"A 	c #664238",
"B 	c #69433A",
"C 	c #C57E6C",
"D 	c #BF7E6C",
"E 	c #E9D3CC",
"F 	c #FEFEFC",
"G 	c #F7DCD4",
"H 	c #DE927D",
"I 	c #9D6656",
"J 	c #472E27",
"K 	c #CC8370",
"L 	c #BE7B69",
"M 	c #D3B3A8",
"N 	c #FCFBF9",
"O 	c #FEFEFB",
"P 	c #F4C9BD",
"Q 	c #C9826E",
"R 	c #8A5A4C",
"S 	c #CB8370",
"T 	c #B98272",
"U 	c #D5CDCA",
"V 	c #F1F1F0",
"W 	c #D8CFCC",
"X 	c #E69E8A",
"Y 	c #A66B5A",
"Z 	c #B17161",
"` 	c #C07C69",
" .	c #D0ACA0",
"..	c #F5C5B6",
"+.	c #BF7B68",
"@.	c #7A5042",
"#.	c #D18672",
"$.	c #B67564",
"%.	c #E4D3CD",
"&.	c #F8E3DC",
"*.	c #D38874",
"=.	c #A36959",
"-.	c #D48874",
";.	c #A76D5B",
">.	c #EFE9E5",
",.	c #F6F5F3",
"'.	c #ECEBEA",
").	c #E6E6E5",
"!.	c #F4F2F0",
"~.	c #F6EDE9",
"{.	c #D78B76",
"].	c #A96E5C",
"^.	c #A36B59",
"/.	c #CCC9C8",
"(.	c #A1A09E",
"_.	c #F0F0EE",
":.	c #D1D0CE",
"<.	c #59595A",
"[.	c #4F4F51",
"}.	c #505052",
"|.	c #959393",
"1.	c #CFC9C7",
"2.	c #DB8D77",
"3.	c #D98B76",
"4.	c #9F6857",
"5.	c #EEE8E5",
"6.	c #EAEAE9",
"7.	c #F7EFEC",
"8.	c #D38773",
"9.	c #AF725E",
"0.	c #DF907A",
"a.	c #B07160",
"b.	c #DCD1CD",
"c.	c #F5DFD8",
"d.	c #CD8470",
"e.	c #AE715F",
"f.	c #C27D6A",
"g.	c #C07C6A",
"h.	c #C3A49B",
"i.	c #F9F9F7",
"j.	c #E8BCAF",
"k.	c #C37D6B",
"l.	c #8D5B4D",
"m.	c #A27365",
"n.	c #CECAC8",
"o.	c #F1F1EF",
"p.	c #D2CECC",
"q.	c #D29280",
"r.	c #B67663",
"s.	c #E7957E",
"t.	c #B87764",
"u.	c #BFA8A1",
"v.	c #E2BEB3",
"w.	c #C57F6D",
"x.	c #A86D5B",
"y.	c #805346",
"z.	c #DD8E78",
"A.	c #A46D5E",
"B.	c #DAC8C2",
"C.	c #E7D5CF",
"D.	c #C2806F",
"E.	c #5B3C31",
"F.	c #B67563",
"G.	c #D28772",
"H.	c #A57465",
"I.	c #DBC7C0",
"J.	c #E6D2CC",
"K.	c #C48574",
"L.	c #89594B",
"M.	c #AC6F5D",
"N.	c #D38872",
"O.	c #A66D5E",
"P.	c #BDA49D",
"Q.	c #D3CDCA",
"R.	c #CAC8C6",
"S.	c #D4D1CF",
"T.	c #D0B0A6",
"U.	c #BB7C6B",
"V.	c #E2927B",
"W.	c #BC7A67",
"X.	c #A27163",
"Y.	c #BEA096",
"Z.	c #DDCEC8",
"`.	c #F0ECEA",
" +	c #DAD5D3",
".+	c #DCDAD8",
"++	c #F2ECE9",
"@+	c #E3D1CA",
"#+	c #C9A79D",
"$+	c #B67F70",
"%+	c #C8816E",
"&+	c #8D5A4D",
"*+	c #E0917A",
"=+	c #E0907A",
"-+	c #C07F6B",
";+	c #B57665",
">+	c #A66F5E",
",+	c #9D6A59",
"'+	c #A26E5D",
")+	c #AE7363",
"!+	c #B97867",
"~+	c #C47E6C",
"{+	c #CE8471",
"]+	c #9F6756",
"^+	c #E6957E",
"/+	c #DB8C77",
"(+	c #D88A75",
"_+	c #D58874",
":+	c #D48873",
"<+	c #D28773",
"[+	c #915D4F",
"                . + @ @ # $ % &                 ",
"            * = - ; > , ' ) ! ~ { ]             ",
"        ^ / ( _ : < [ } } | 1 2 3 4 5 6         ",
"      7 8 9 0 a b c d e e d c b f g h i j       ",
"    k l m n o p q r s t u s c v w o x y z A     ",
"  B C D E c F F F c c c c c c c c c c G H I J   ",
"  K L M N F F F F c c F c c c c c O F o P Q R   ",
"  S T U V F F F F c c r c c c c c c F V W X Y   ",
"Z `  .s c F F F F c c r c O c c c c F c s ..+.@.",
"#.$.%.F F F F F F c c c c c c r c r F F F &.*.=.",
"-.;.>.,.c F F F F c c N '.).).).).).).!.,.~.{.].",
"-.^./.(._.F F F F c c :.<.[.[.[.[.[.}.|.(.1.2.@ ",
"3.4.5.,.c F F F F c c N 6.).).).).).).V ,.7.8.9.",
"0.a.b.F F F F F F c c c c c c c c c F F F c.d.e.",
"f.g.h.i.c F F F F c c r r c c c c c F c s j.k.l.",
"  2.m.n.o.c c c c c c c c c c c c c c o.p.q.r.  ",
"  s.t.u.q c c c c c c c c c c c c c c N v.w.x.  ",
"  y.z.A.B.c c c c c c c c c c c c c c C.D.t.E.  ",
"    F.G.H.I.v w v c c q q c c v w o J.K.k.L.    ",
"      M.N.O.P.Q.b c c R.R.c c b S.T.U.k.7       ",
"        $ V.W.X.Y.Z.`. +.+++@+#+$+g.%+&+        ",
"            *+=+-+;+>+,+'+)+!+~+{+f.            ",
"                ]+^+/+(+_+:+<+[+                "};
