/* XPM */
static char * dockicon1_xpm[] = {
"24 23 231 2",
"  	c None",
". 	c #6A443A",
"+ 	c #AA6E5E",
"@ 	c #AD7160",
"# 	c #AC715F",
"$ 	c #A56C5C",
"% 	c #9B6455",
"& 	c #5E3C33",
"* 	c #9D6657",
"= 	c #B37564",
"- 	c #BE7B69",
"; 	c #CB8573",
"> 	c #D28C79",
", 	c #DD927E",
"' 	c #DF937E",
") 	c #DE927D",
"! 	c #CE8976",
"~ 	c #BB7967",
"{ 	c #A06858",
"] 	c #815347",
"^ 	c #784E43",
"/ 	c #B97766",
"( 	c #C37E6D",
"_ 	c #D3907E",
": 	c #E8BAAD",
"< 	c #F7DFD6",
"[ 	c #F3EBE8",
"} 	c #C3BAB7",
"| 	c #C0BCBC",
"1 	c #F4EDE9",
"2 	c #FAE2DA",
"3 	c #F2C3B5",
"4 	c #E19C88",
"5 	c #C5816E",
"6 	c #5C3C33",
"7 	c #89584B",
"8 	c #BD7968",
"9 	c #C68271",
"0 	c #DFB9AE",
"a 	c #DDD2CF",
"b 	c #ECEBEA",
"c 	c #FDFDFB",
"d 	c #F4F3F1",
"e 	c #8B8B8B",
"f 	c #DFD7D3",
"g 	c #F3C7BB",
"h 	c #DB927D",
"i 	c #AC6F5F",
"j 	c #613F35",
"k 	c #925E51",
"l 	c #C17C6B",
"m 	c #C68675",
"n 	c #EDD4CB",
"o 	c #FDFCFA",
"p 	c #FAFAF8",
"q 	c #FCFCFA",
"r 	c #FDFDFC",
"s 	c #F9F9F7",
"t 	c #CFCDCD",
"u 	c #FDFBF9",
"v 	c #F9DFD7",
"w 	c #E59A85",
"x 	c #AD705F",
"y 	c #654137",
"z 	c #6F473D",
"A 	c #C47E6C",
"B 	c #BE7D6C",
"C 	c #E6D4CE",
"D 	c #FEFEFC",
"E 	c #F5F4F2",
"F 	c #BFBBB8",
"G 	c #EBE9E7",
"H 	c #F7DCD4",
"I 	c #DB937F",
"J 	c #A16858",
"K 	c #462D26",
"L 	c #CD8470",
"M 	c #BF7B6A",
"N 	c #D4B3A9",
"O 	c #FCFBF9",
"P 	c #F2F1EF",
"Q 	c #8D8B89",
"R 	c #575655",
"S 	c #E6E3E0",
"T 	c #F3C9BC",
"U 	c #CA836F",
"V 	c #CC8370",
"W 	c #B88173",
"X 	c #D6CCC9",
"Y 	c #F2F1F0",
"Z 	c #F1F0EE",
"` 	c #8A8988",
" .	c #646463",
"..	c #D9D7D4",
"+.	c #D9CECB",
"@.	c #E8A08C",
"#.	c #A66B5B",
"$.	c #AC7161",
"%.	c #C37E6B",
"&.	c #CDABA1",
"*.	c #FAF9F7",
"=.	c #EFEEEC",
"-.	c #7F7E7E",
";.	c #5B5A59",
">.	c #DFDDDC",
",.	c #C07C6A",
"'.	c #7A4F43",
").	c #D18773",
"!.	c #B67665",
"~.	c #E0D2CE",
"{.	c #EBEAE7",
"].	c #82807E",
"^.	c #676666",
"/.	c #E1E0DE",
"(.	c #F8E3DC",
"_.	c #D68A75",
":.	c #9F6758",
"<.	c #D18874",
"[.	c #AB6E5E",
"}.	c #EFE8E5",
"|.	c #F6F6F4",
"1.	c #EDECEA",
"2.	c #757473",
"3.	c #6B6A69",
"4.	c #E4E2DF",
"5.	c #F5F5F3",
"6.	c #F6ECE7",
"7.	c #D78D78",
"8.	c #AA6F5E",
"9.	c #CCC9C8",
"0.	c #A1A0A0",
"a.	c #F0F0EF",
"b.	c #C9C9C8",
"c.	c #858281",
"d.	c #E6E4E2",
"e.	c #F0F0EE",
"f.	c #A09F9F",
"g.	c #CFC8C6",
"h.	c #DC8E79",
"i.	c #AF7160",
"j.	c #D38C79",
"k.	c #A56A5A",
"l.	c #EEE8E5",
"m.	c #F5F4F3",
"n.	c #FBFBF9",
"o.	c #FAF9F6",
"p.	c #F4EAE6",
"q.	c #B07261",
"r.	c #DD927D",
"s.	c #AE7060",
"t.	c #DED0CC",
"u.	c #F4DFD9",
"v.	c #C8826F",
"w.	c #C37F6B",
"x.	c #C07D6B",
"y.	c #C1A49B",
"z.	c #E8BEB2",
"A.	c #C27D6B",
"B.	c #8D5B4E",
"C.	c #DA8E79",
"D.	c #A47568",
"E.	c #D0CBC9",
"F.	c #D8CECA",
"G.	c #D59481",
"H.	c #B47463",
"I.	c #E5947D",
"J.	c #BAA9A3",
"K.	c #E1BCB2",
"L.	c #C57E6D",
"M.	c #A76D5C",
"N.	c #7D5144",
"O.	c #E1917B",
"P.	c #A36C5D",
"Q.	c #D9C8C2",
"R.	c #E8D2CC",
"S.	c #C78371",
"T.	c #BA7867",
"U.	c #5E3D33",
"V.	c #B27361",
"W.	c #D08A76",
"X.	c #A67060",
"Y.	c #D4C8C3",
"Z.	c #FDFCF9",
"`.	c #E8D0C9",
" +	c #C38677",
".+	c #C07B6A",
"++	c #87574A",
"@+	c #AA6E5D",
"#+	c #D38B76",
"$+	c #A36D5F",
"%+	c #BFA39C",
"&+	c #D3CDCB",
"*+	c #C9C7C7",
"=+	c #D5D0CF",
"-+	c #D2AEA3",
";+	c #BE7D6D",
">+	c #C37D6C",
",+	c #8B594D",
"'+	c #A26958",
")+	c #DE917C",
"!+	c #B97867",
"~+	c #A17467",
"{+	c #BBA199",
"]+	c #DDCDC8",
"^+	c #F0EBE9",
"/+	c #DCD9D8",
"(+	c #F1ECE8",
"_+	c #E3D1CA",
":+	c #CBA79D",
"<+	c #B88071",
"[+	c #BE7B6A",
"}+	c #88584B",
"|+	c #DC8F78",
"1+	c #DB8D78",
"2+	c #C2806D",
"3+	c #B27464",
"4+	c #A86F60",
"5+	c #A06B5C",
"6+	c #A46D5E",
"7+	c #AC7262",
"8+	c #B67867",
"9+	c #C47F6C",
"0+	c #CD8471",
"a+	c #9C6555",
"b+	c #DE937E",
"c+	c #D68E7A",
"d+	c #D48A75",
"e+	c #D08774",
"f+	c #D18975",
"g+	c #D18A77",
"h+	c #8A5B4E",
"                . + @ @ # $ % &                 ",
"            * = - ; > , ' ) ! ~ { ]             ",
"        ^ / ( _ : < [ } | 1 2 3 4 5 % 6         ",
"      7 8 9 0 a b c d e e d c b f g h i j       ",
"    k l m n o p q r s t t s c q p u v w x y     ",
"  z A B C c D D D c c c c c c c E F G H I J K   ",
"  L M N O D D D D c c D c c c P Q R S o T U 7   ",
"  V W X Y D D D D c c r c c Z `  ...D Y +.@.#.  ",
"$.%.&.*.c D D D D c c r c =.-.;.>.c D c *.3 ,.'.",
").!.~.D D D D D D c c c {.].^./.c r D D D (._.:.",
"<.[.}.|.c D D D D c c 1.2.3.4.r c c D c 5.6.7.8.",
"<.{ 9.0.a.D D D D c c b.c.d.r r c r D e.f.g.h.i.",
"j.k.l.m.c D D D D c c n.o.c r c c c D c m.p.<.q.",
"r.s.t.D D D D D D c c c c c c c c c D D D u.v.@ ",
"w.x.y.s c D D D D c c r r c c c c c D c *.z.A.B.",
"  C.D.E.Y c c c c c c c c c c c c c c Y F.G.H.  ",
"  I.H.J.O c c c c c c c c c c c c c c q K.L.M.  ",
"  N.O.P.Q.c c c c c c c c c c c c c c R.S.T.U.  ",
"    V.W.X.Y.Z.p q c c n.n.c c q p q `. +.+++    ",
"      @+#+$+%+&+b c c *+*+c c b =+-+;+>+,+      ",
"        '+)+!+~+{+]+^+/+/+(+_+:+<+[+V }+        ",
"            |+1+2+3+4+5+6+7+8+9+0+%.            ",
"                a+b+c+d+e+f+g+h+                "};
