/* XPM */
static char * dockicon6_xpm[] = {
"24 23 212 2",
"  	c None",
". 	c #6C463A",
"+ 	c #AB705C",
"@ 	c #AD725D",
"# 	c #AB705D",
"$ 	c #A76C5B",
"% 	c #9B6454",
"& 	c #5E3D33",
"* 	c #9F6757",
"= 	c #B17261",
"- 	c #BE7B68",
"; 	c #CD8572",
"> 	c #D48B78",
", 	c #DD917D",
"' 	c #DD927D",
") 	c #DC917C",
"! 	c #D28975",
"~ 	c #BC7967",
"{ 	c #9E6756",
"] 	c #815447",
"^ 	c #784F41",
"/ 	c #B57663",
"( 	c #C6806E",
"_ 	c #D18F7D",
": 	c #E6BAAE",
"< 	c #F6DED6",
"[ 	c #F4ECE8",
"} 	c #C1BCBB",
"| 	c #F5EDE9",
"1 	c #FAE1D8",
"2 	c #F4C2B4",
"3 	c #E69D88",
"4 	c #C7816D",
"5 	c #986353",
"6 	c #5D3C33",
"7 	c #88584B",
"8 	c #BD7968",
"9 	c #C58270",
"0 	c #DFB9AF",
"a 	c #DCD2CF",
"b 	c #EBEBEA",
"c 	c #FDFDFB",
"d 	c #F4F4F1",
"e 	c #8B8A89",
"f 	c #DDD3D0",
"g 	c #F6C9BB",
"h 	c #DF937E",
"i 	c #AA6E5D",
"j 	c #623F36",
"k 	c #925E51",
"l 	c #C07B6A",
"m 	c #C78979",
"n 	c #EDD4CC",
"o 	c #FDFCFA",
"p 	c #F9F9F6",
"q 	c #FBFBF9",
"r 	c #FDFDFC",
"s 	c #FAF9F7",
"t 	c #D0CDCC",
"u 	c #CECAC9",
"v 	c #FCFCFA",
"w 	c #FAFAF8",
"x 	c #F6DBD2",
"y 	c #E59D89",
"z 	c #AC6F5E",
"A 	c #664238",
"B 	c #69433A",
"C 	c #C57E6C",
"D 	c #BF7E6C",
"E 	c #E9D3CC",
"F 	c #FEFEFC",
"G 	c #F7DCD4",
"H 	c #DE927D",
"I 	c #9D6656",
"J 	c #472E27",
"K 	c #CC8370",
"L 	c #BE7B69",
"M 	c #D3B3A8",
"N 	c #FCFBF9",
"O 	c #FEFEFB",
"P 	c #F4C9BD",
"Q 	c #C9826E",
"R 	c #8A5A4C",
"S 	c #CB8370",
"T 	c #B98272",
"U 	c #D5CDCA",
"V 	c #F1F1F0",
"W 	c #D8CFCC",
"X 	c #E69E8A",
"Y 	c #A66B5A",
"Z 	c #B17161",
"` 	c #C07C69",
" .	c #D0ACA0",
"..	c #F5C5B6",
"+.	c #BF7B68",
"@.	c #7A5042",
"#.	c #D18672",
"$.	c #B67564",
"%.	c #E4D3CD",
"&.	c #F8E3DC",
"*.	c #D38874",
"=.	c #A36959",
"-.	c #D48874",
";.	c #A76D5B",
">.	c #EFE9E5",
",.	c #F6F5F3",
"'.	c #F4F2F0",
").	c #E6E6E5",
"!.	c #ECEBEA",
"~.	c #F6EDE9",
"{.	c #D78B76",
"].	c #A96E5C",
"^.	c #A36B59",
"/.	c #CCC9C8",
"(.	c #A1A09E",
"_.	c #959393",
":.	c #505052",
"<.	c #4F4F51",
"[.	c #59595A",
"}.	c #D3D3D2",
"|.	c #F0F0EE",
"1.	c #CFC9C7",
"2.	c #DB8D77",
"3.	c #D98B76",
"4.	c #9F6857",
"5.	c #EEE8E5",
"6.	c #EAEAE9",
"7.	c #F7EFEC",
"8.	c #D38773",
"9.	c #AF725E",
"0.	c #DF907A",
"a.	c #B07160",
"b.	c #DCD1CD",
"c.	c #F5DFD8",
"d.	c #CD8470",
"e.	c #AE715F",
"f.	c #C27D6A",
"g.	c #C07C6A",
"h.	c #C3A49B",
"i.	c #F9F9F7",
"j.	c #E8BCAF",
"k.	c #C37D6B",
"l.	c #8D5B4D",
"m.	c #DA8C77",
"n.	c #A27365",
"o.	c #CECAC8",
"p.	c #F1F1EF",
"q.	c #D2CECC",
"r.	c #D29280",
"s.	c #B67663",
"t.	c #E6957D",
"u.	c #B87764",
"v.	c #BFA8A1",
"w.	c #E2BEB3",
"x.	c #C57F6D",
"y.	c #A86D5B",
"z.	c #805346",
"A.	c #DD8E78",
"B.	c #A46D5E",
"C.	c #DAC8C2",
"D.	c #E7D5CF",
"E.	c #C2806F",
"F.	c #5B3C31",
"G.	c #B67563",
"H.	c #D28772",
"I.	c #A57465",
"J.	c #DBC7C0",
"K.	c #E6D2CC",
"L.	c #C48574",
"M.	c #89594B",
"N.	c #AC6F5D",
"O.	c #D38872",
"P.	c #A66D5E",
"Q.	c #BDA49D",
"R.	c #D3CDCA",
"S.	c #CAC8C6",
"T.	c #D4D1CF",
"U.	c #D0B0A6",
"V.	c #BB7C6B",
"W.	c #E2927B",
"X.	c #BC7A67",
"Y.	c #A27163",
"Z.	c #BEA096",
"`.	c #DDCEC8",
" +	c #F0ECEA",
".+	c #DAD5D3",
"++	c #DCDAD8",
"@+	c #F2ECE9",
"#+	c #E3D1CA",
"$+	c #C9A79D",
"%+	c #B67F70",
"&+	c #C8816E",
"*+	c #8D5A4D",
"=+	c #E0917A",
"-+	c #E0907A",
";+	c #C07F6B",
">+	c #B57665",
",+	c #A66F5E",
"'+	c #9D6A59",
")+	c #A26E5D",
"!+	c #AE7363",
"~+	c #B97867",
"{+	c #C47E6C",
"]+	c #CE8471",
"^+	c #9F6756",
"/+	c #E6957E",
"(+	c #DB8C77",
"_+	c #D88A75",
":+	c #D58874",
"<+	c #D48873",
"[+	c #D28773",
"}+	c #915D4F",
"                . + @ @ # $ % &                 ",
"            * = - ; > , ' ) ! ~ { ]             ",
"        ^ / ( _ : < [ } } | 1 2 3 4 5 6         ",
"      7 8 9 0 a b c d e e d c b f g h i j       ",
"    k l m n o p q r s t u s c v w o x y z A     ",
"  B C D E c F F F c c c c c c c c c c G H I J   ",
"  K L M N F F F F c c F c c c c c O F o P Q R   ",
"  S T U V F F F F c c r c c c c c c F V W X Y   ",
"Z `  .s c F F F F c c r c O c c c c F c s ..+.@.",
"#.$.%.F F F F F F c c c c c c r c r F F F &.*.=.",
"-.;.>.,.'.).).).).).).!.N c c r c c F c ,.~.{.].",
"-.^./.(._.:.<.<.<.<.<.[.}.c r r c r F |.(.1.2.@ ",
"3.4.5.,.V ).).).).).).6.N c r c c c F c ,.7.8.9.",
"0.a.b.F F F F F F c c c c c c c c c F F F c.d.e.",
"f.g.h.i.c F F F F c c r r c c c c c F c s j.k.l.",
"  m.n.o.p.c c c c c c c c c c c c c c p.q.r.s.  ",
"  t.u.v.q c c c c c c c c c c c c c c N w.x.y.  ",
"  z.A.B.C.c c c c c c c c c c c c c c D.E.u.F.  ",
"    G.H.I.J.v w v c c q q c c v w o K.L.k.M.    ",
"      N.O.P.Q.R.b c c S.S.c c b T.U.V.k.7       ",
"        $ W.X.Y.Z.`. +.+++@+#+$+%+g.&+*+        ",
"            =+-+;+>+,+'+)+!+~+{+]+f.            ",
"                ^+/+(+_+:+<+[+}+                "};
