/* XPM */
static char * dockicon7_xpm[] = {
"24 23 229 2",
"  	c None",
". 	c #6A443A",
"+ 	c #AA6E5E",
"@ 	c #AD7160",
"# 	c #AC715F",
"$ 	c #A56C5C",
"% 	c #9B6455",
"& 	c #5E3C33",
"* 	c #9D6657",
"= 	c #B37564",
"- 	c #BE7B69",
"; 	c #CB8573",
"> 	c #D28C79",
", 	c #DD927E",
"' 	c #DF937E",
") 	c #DE927D",
"! 	c #CE8976",
"~ 	c #BB7967",
"{ 	c #A06858",
"] 	c #815347",
"^ 	c #784E43",
"/ 	c #B97766",
"( 	c #C37E6D",
"_ 	c #D3907E",
": 	c #E8BAAD",
"< 	c #F7DFD6",
"[ 	c #F3EBE8",
"} 	c #C3BAB7",
"| 	c #C0BCBC",
"1 	c #F4EDE9",
"2 	c #FAE2DA",
"3 	c #F2C3B5",
"4 	c #E19C88",
"5 	c #C5816E",
"6 	c #5C3C33",
"7 	c #89584B",
"8 	c #BD7968",
"9 	c #C68271",
"0 	c #DFB9AE",
"a 	c #DDD2CF",
"b 	c #ECEBEA",
"c 	c #FDFDFB",
"d 	c #F4F3F1",
"e 	c #8B8B8B",
"f 	c #DFD7D3",
"g 	c #F3C7BB",
"h 	c #DB927D",
"i 	c #AC6F5F",
"j 	c #613F35",
"k 	c #925E51",
"l 	c #C17C6B",
"m 	c #C68675",
"n 	c #EDD4CB",
"o 	c #FDFBF9",
"p 	c #FAFAF8",
"q 	c #FCFCFA",
"r 	c #FDFDFC",
"s 	c #F9F9F7",
"t 	c #CFCDCD",
"u 	c #FDFCFA",
"v 	c #F9DFD7",
"w 	c #E59A85",
"x 	c #AD705F",
"y 	c #654137",
"z 	c #6F473D",
"A 	c #C47E6C",
"B 	c #BE7D6C",
"C 	c #E6D4CE",
"D 	c #EEECE9",
"E 	c #BFB9B6",
"F 	c #FEFEFC",
"G 	c #F7DCD4",
"H 	c #DB937F",
"I 	c #A16858",
"J 	c #462D26",
"K 	c #CD8470",
"L 	c #BF7B6A",
"M 	c #D2B3A9",
"N 	c #FCFBF9",
"O 	c #E2DFDD",
"P 	c #565554",
"Q 	c #8D8B89",
"R 	c #F3F2F0",
"S 	c #FEFEFB",
"T 	c #F3C9BC",
"U 	c #CA836F",
"V 	c #CC8370",
"W 	c #B88173",
"X 	c #D1CCCA",
"Y 	c #F2F1F0",
"Z 	c #DBD9D7",
"` 	c #656564",
" .	c #898888",
"..	c #F2F1EF",
"+.	c #D9CECB",
"@.	c #E8A08C",
"#.	c #A66B5B",
"$.	c #AE7060",
"%.	c #C57F6D",
"&.	c #CDABA1",
"*.	c #FAF9F7",
"=.	c #DFDDDC",
"-.	c #5B5A59",
";.	c #818080",
">.	c #EFEEEC",
",.	c #C07C6A",
"'.	c #7A4F43",
").	c #D18773",
"!.	c #B47564",
"~.	c #E0D2CE",
"{.	c #E0DEDB",
"].	c #676565",
"^.	c #838180",
"/.	c #ECEBE9",
"(.	c #F8E3DC",
"_.	c #D68A75",
":.	c #9F6758",
"<.	c #D18874",
"[.	c #AB6E5E",
"}.	c #EFE8E5",
"|.	c #F5F4F3",
"1.	c #E5E4E2",
"2.	c #6A6968",
"3.	c #777575",
"4.	c #F0EEEC",
"5.	c #F5F5F3",
"6.	c #F6ECE7",
"7.	c #D78D78",
"8.	c #AA6F5E",
"9.	c #A26959",
"0.	c #CCC9C8",
"a.	c #A09F9F",
"b.	c #F0F0EE",
"c.	c #E6E4E2",
"d.	c #858382",
"e.	c #C9C7C6",
"f.	c #CFC8C6",
"g.	c #DC8E79",
"h.	c #AF7160",
"i.	c #D28B77",
"j.	c #A56A5A",
"k.	c #EEE8E5",
"l.	c #FBF9F7",
"m.	c #F4EAE6",
"n.	c #B07261",
"o.	c #DA907B",
"p.	c #DED0CC",
"q.	c #F4DFD9",
"r.	c #C8826F",
"s.	c #C5806B",
"t.	c #C07D6B",
"u.	c #C1A49B",
"v.	c #E8BEB2",
"w.	c #C27D6B",
"x.	c #8D5B4E",
"y.	c #DA8E79",
"z.	c #A47568",
"A.	c #D0CBC9",
"B.	c #D8CECA",
"C.	c #D59481",
"D.	c #B47463",
"E.	c #E5947D",
"F.	c #BAA9A3",
"G.	c #E1BCB2",
"H.	c #C57E6D",
"I.	c #A76D5C",
"J.	c #7D5144",
"K.	c #E1917B",
"L.	c #A36C5D",
"M.	c #D9C8C2",
"N.	c #E8D2CC",
"O.	c #C78371",
"P.	c #BA7867",
"Q.	c #5E3D33",
"R.	c #B27361",
"S.	c #D08A76",
"T.	c #A67060",
"U.	c #D4C8C3",
"V.	c #FDFCF9",
"W.	c #FBFBF9",
"X.	c #E8D0C9",
"Y.	c #C38677",
"Z.	c #C07B6A",
"`.	c #87574A",
" +	c #AA6E5D",
".+	c #D38B76",
"++	c #A36D5F",
"@+	c #BFA39C",
"#+	c #D3CDCB",
"$+	c #C9C7C7",
"%+	c #D5D0CF",
"&+	c #D2AEA3",
"*+	c #BE7D6D",
"=+	c #C37D6C",
"-+	c #8B594D",
";+	c #A26958",
">+	c #DE917C",
",+	c #B97867",
"'+	c #A17467",
")+	c #BBA199",
"!+	c #DDCDC8",
"~+	c #F0EBE9",
"{+	c #DCD9D8",
"]+	c #F1ECE8",
"^+	c #E3D1CA",
"/+	c #CBA79D",
"(+	c #B88071",
"_+	c #BE7B6A",
":+	c #88584B",
"<+	c #DC8F78",
"[+	c #DB8D78",
"}+	c #C2806D",
"|+	c #B27464",
"1+	c #A86F60",
"2+	c #A06B5C",
"3+	c #A46D5E",
"4+	c #AC7262",
"5+	c #B67867",
"6+	c #C47F6C",
"7+	c #CD8471",
"8+	c #C37E6B",
"9+	c #9C6555",
"0+	c #DE937E",
"a+	c #D68E7A",
"b+	c #D48A75",
"c+	c #D08774",
"d+	c #D18975",
"e+	c #D18A77",
"f+	c #8A5B4E",
"                . + @ @ # $ % &                 ",
"            * = - ; > , ' ) ! ~ { ]             ",
"        ^ / ( _ : < [ } | 1 2 3 4 5 % 6         ",
"      7 8 9 0 a b c d e e d c b f g h i j       ",
"    k l m n o p q r s t t s c q p u v w x y     ",
"  z A B C D E d F c c c c c c c c c c G H I J   ",
"  K L M N O P Q R c c F c c c c c S F u T U 7   ",
"  V W X Y F Z `  ...c r c c c c c c F Y +.@.#.  ",
"$.%.&.*.c F F =.-.;.>.r c S c c c c F c *.3 ,.'.",
").!.~.F F F F F {.].^./.c c c r c r F F F (._.:.",
"<.[.}.|.c F F F F 1.2.3.4.c c r c c F c 5.6.7.8.",
"<.9.0.a.b.F F F F c c.d.e.c r r c r F b.a.f.g.h.",
"i.j.k.|.c F F F F c c l.q c r c c c F c |.m.<.n.",
"o.$.p.F F F F F F c c c c c c c c c F F F q.r.@ ",
"s.t.u.s c F F F F c c r r c c c c c F c *.v.w.x.",
"  y.z.A.Y c c c c c c c c c c c c c c Y B.C.D.  ",
"  E.D.F.N c c c c c c c c c c c c c c q G.H.I.  ",
"  J.K.L.M.c c c c c c c c c c c c c c N.O.P.Q.  ",
"    R.S.T.U.V.p q c c W.W.c c q p q X.Y.Z.`.    ",
"       +.+++@+#+b c c $+$+c c b %+&+*+=+-+      ",
"        ;+>+,+'+)+!+~+{+{+]+^+/+(+_+V :+        ",
"            <+[+}+|+1+2+3+4+5+6+7+8+            ",
"                9+0+a+b+c+d+e+f+                "};
