/* XPM */
static char * dockicon5_xpm[] = {
"24 23 229 2",
"  	c None",
". 	c #6A443A",
"+ 	c #AA6E5E",
"@ 	c #AD7160",
"# 	c #AC715F",
"$ 	c #A56C5C",
"% 	c #9B6455",
"& 	c #5E3C33",
"* 	c #9D6657",
"= 	c #B37564",
"- 	c #BE7B69",
"; 	c #CB8573",
"> 	c #D28C79",
", 	c #DD927E",
"' 	c #DF937E",
") 	c #DE927D",
"! 	c #CE8976",
"~ 	c #BB7967",
"{ 	c #A06858",
"] 	c #815347",
"^ 	c #784E43",
"/ 	c #B97766",
"( 	c #C37E6D",
"_ 	c #D3907E",
": 	c #E8BAAD",
"< 	c #F7DFD6",
"[ 	c #F3EBE8",
"} 	c #C3BAB7",
"| 	c #C0BCBC",
"1 	c #F4EDE9",
"2 	c #FAE2DA",
"3 	c #F2C3B5",
"4 	c #E19C88",
"5 	c #C5816E",
"6 	c #5C3C33",
"7 	c #89584B",
"8 	c #BD7968",
"9 	c #C68271",
"0 	c #DFB9AE",
"a 	c #DDD2CF",
"b 	c #ECEBEA",
"c 	c #FDFDFB",
"d 	c #F4F3F1",
"e 	c #8B8B8B",
"f 	c #DFD7D3",
"g 	c #F3C7BB",
"h 	c #DB927D",
"i 	c #AC6F5F",
"j 	c #613F35",
"k 	c #925E51",
"l 	c #C17C6B",
"m 	c #C68675",
"n 	c #EDD4CB",
"o 	c #FDFCFA",
"p 	c #FAFAF8",
"q 	c #FCFCFA",
"r 	c #FDFDFC",
"s 	c #F9F9F7",
"t 	c #CFCDCD",
"u 	c #F9DFD7",
"v 	c #E59A85",
"w 	c #AD705F",
"x 	c #654137",
"y 	c #6F473D",
"z 	c #C47E6C",
"A 	c #BE7D6C",
"B 	c #E6D4CE",
"C 	c #FEFEFC",
"D 	c #F7DCD4",
"E 	c #DB937F",
"F 	c #A16858",
"G 	c #462D26",
"H 	c #CD8470",
"I 	c #BF7B6A",
"J 	c #D4B3A9",
"K 	c #FCFBF9",
"L 	c #FEFEFB",
"M 	c #F3C9BC",
"N 	c #CA836F",
"O 	c #CC8370",
"P 	c #B88173",
"Q 	c #D6CCC9",
"R 	c #F2F1F0",
"S 	c #D9CECB",
"T 	c #E8A08C",
"U 	c #A66B5B",
"V 	c #AC7161",
"W 	c #C37E6B",
"X 	c #CDABA1",
"Y 	c #FAF9F7",
"Z 	c #C07C6A",
"` 	c #7A4F43",
" .	c #D18773",
"..	c #B67665",
"+.	c #E0D2CE",
"@.	c #F8E3DC",
"#.	c #D68A75",
"$.	c #9F6758",
"%.	c #D18874",
"&.	c #AB6E5E",
"*.	c #EFE8E5",
"=.	c #F6F6F4",
"-.	c #FAF9F6",
";.	c #FBFBF9",
">.	c #F5F5F3",
",.	c #F6ECE7",
"'.	c #D78D78",
").	c #AA6F5E",
"!.	c #CCC9C8",
"~.	c #A1A0A0",
"{.	c #F0F0EF",
"].	c #E7E6E4",
"^.	c #868383",
"/.	c #C9C6C5",
"(.	c #F0F0EE",
"_.	c #A09F9F",
":.	c #CFC8C6",
"<.	c #DC8E79",
"[.	c #AF7160",
"}.	c #D38C79",
"|.	c #A56A5A",
"1.	c #EEE8E5",
"2.	c #F5F4F3",
"3.	c #E4E2DF",
"4.	c #696767",
"5.	c #777575",
"6.	c #F0EEEC",
"7.	c #F4EAE6",
"8.	c #B07261",
"9.	c #DD927D",
"0.	c #AE7060",
"a.	c #DED0CC",
"b.	c #E1E0DE",
"c.	c #676666",
"d.	c #838180",
"e.	c #ECEBE9",
"f.	c #F4DFD9",
"g.	c #C8826F",
"h.	c #C37F6B",
"i.	c #C07D6B",
"j.	c #C1A49B",
"k.	c #DFDEDC",
"l.	c #5B5B5B",
"m.	c #7F7E7E",
"n.	c #EFEEEC",
"o.	c #E8BEB2",
"p.	c #C27D6B",
"q.	c #8D5B4E",
"r.	c #DA8E79",
"s.	c #A47568",
"t.	c #D0CBC9",
"u.	c #DAD8D6",
"v.	c #646362",
"w.	c #8B8988",
"x.	c #F0EFED",
"y.	c #D8CECA",
"z.	c #D59481",
"A.	c #B47463",
"B.	c #E5947D",
"C.	c #BAA9A3",
"D.	c #E5E0DD",
"E.	c #575555",
"F.	c #8D8B89",
"G.	c #F3F2F0",
"H.	c #E1BCB2",
"I.	c #C57E6D",
"J.	c #A76D5C",
"K.	c #7D5144",
"L.	c #E1917B",
"M.	c #A36C5D",
"N.	c #D8C6C1",
"O.	c #EFECE9",
"P.	c #BCB8B6",
"Q.	c #E8D2CC",
"R.	c #C78371",
"S.	c #BA7867",
"T.	c #5E3D33",
"U.	c #B27361",
"V.	c #D08A76",
"W.	c #9F7266",
"X.	c #D3C4BF",
"Y.	c #E8D0C9",
"Z.	c #C38677",
"`.	c #C07B6A",
" +	c #87574A",
".+	c #AB7160",
"++	c #D08773",
"@+	c #A76E5F",
"#+	c #B5A39E",
"$+	c #D5CDCB",
"%+	c #C9C7C7",
"&+	c #D5D0CF",
"*+	c #D2AEA3",
"=+	c #BE7D6D",
"-+	c #C37D6C",
";+	c #8B594D",
">+	c #A46D5D",
",+	c #E3937C",
"'+	c #BA7B6A",
")+	c #9E7165",
"!+	c #BAA098",
"~+	c #DDCDC8",
"{+	c #F0EBE9",
"]+	c #DCD9D8",
"^+	c #F1ECE8",
"/+	c #E3D1CA",
"(+	c #CBA79D",
"_+	c #B88071",
":+	c #BE7B6A",
"<+	c #88584B",
"[+	c #DC8F78",
"}+	c #DB8D78",
"|+	c #C27F6D",
"1+	c #B27464",
"2+	c #A86F60",
"3+	c #A06B5C",
"4+	c #A46D5E",
"5+	c #AC7262",
"6+	c #B67867",
"7+	c #C47F6C",
"8+	c #CD8471",
"9+	c #9C6555",
"0+	c #DE937E",
"a+	c #D68E7A",
"b+	c #D48A75",
"c+	c #D08774",
"d+	c #D18975",
"e+	c #D18A77",
"f+	c #8A5B4E",
"                . + @ @ # $ % &                 ",
"            * = - ; > , ' ) ! ~ { ]             ",
"        ^ / ( _ : < [ } | 1 2 3 4 5 % 6         ",
"      7 8 9 0 a b c d e e d c b f g h i j       ",
"    k l m n o p q r s t t s c q p o u v w x     ",
"  y z A B c C C C c c c c c c c c c c D E F G   ",
"  H I J K C C C C c c C c c c c c L C o M N 7   ",
"  O P Q R C C C C c c r c c c c c c C R S T U   ",
"V W X Y c C C C C c c r c L c c c c C c Y 3 Z ` ",
" ...+.C C C C C C c c c c c c r c r C C C @.#.$.",
"%.&.*.=.c C C C C c c -.;.c c r c c C c >.,.'.).",
"%.{ !.~.{.C C C C c ].^./.c r r c r C (._.:.<.[.",
"}.|.1.2.c C C C C 3.4.5.6.c r c c c C c 2.7.%.8.",
"9.0.a.C C C C C b.c.d.e.c c c c c c C C C f.g.@ ",
"h.i.j.s c C C k.l.m.n.r r c c c c c C c Y o.p.q.",
"  r.s.t.R c u.v.w.x.c c c c c c c c c R y.z.A.  ",
"  B.A.C.K D.E.F.G.c c c c c c c c c c q H.I.J.  ",
"  K.L.M.N.O.P.d c c c c c c c c c c c Q.R.S.T.  ",
"    U.V.W.X.p p q c c ;.;.c c q p q Y.Z.`. +    ",
"      .+++@+#+$+b c c %+%+c c b &+*+=+-+;+      ",
"        >+,+'+)+!+~+{+]+]+^+/+(+_+:+O <+        ",
"            [+}+|+1+2+3+4+5+6+7+8+W             ",
"                9+0+a+b+c+d+e+f+                "};
