/* XPM */
static char * dockicon4_xpm[] = {
"24 23 206 2",
"  	c None",
". 	c #6C463A",
"+ 	c #AB705C",
"@ 	c #AD725D",
"# 	c #AB705D",
"$ 	c #A76C5B",
"% 	c #9B6454",
"& 	c #5E3D33",
"* 	c #9F6757",
"= 	c #B17261",
"- 	c #BE7B68",
"; 	c #CD8572",
"> 	c #D48B78",
", 	c #DD917D",
"' 	c #DD927D",
") 	c #DC917C",
"! 	c #D28975",
"~ 	c #BC7967",
"{ 	c #9E6756",
"] 	c #815447",
"^ 	c #784F41",
"/ 	c #B57663",
"( 	c #C6806E",
"_ 	c #D18F7D",
": 	c #E6BAAE",
"< 	c #F6DED6",
"[ 	c #F4ECE8",
"} 	c #C1BCBB",
"| 	c #F5EDE9",
"1 	c #FAE1D8",
"2 	c #F4C2B4",
"3 	c #E69D88",
"4 	c #C7816D",
"5 	c #986353",
"6 	c #5D3C33",
"7 	c #88584B",
"8 	c #BD7968",
"9 	c #C58270",
"0 	c #DFB9AF",
"a 	c #DCD2CF",
"b 	c #EBEBEA",
"c 	c #FDFDFB",
"d 	c #F4F4F1",
"e 	c #8B8A89",
"f 	c #DDD3D0",
"g 	c #F6C9BB",
"h 	c #DF937E",
"i 	c #AA6E5D",
"j 	c #623F36",
"k 	c #925E51",
"l 	c #C07B6A",
"m 	c #C78979",
"n 	c #EDD4CC",
"o 	c #FDFCFA",
"p 	c #F9F9F6",
"q 	c #FBFBF9",
"r 	c #FDFDFC",
"s 	c #FAF9F7",
"t 	c #D0CDCC",
"u 	c #CECAC9",
"v 	c #FCFCFA",
"w 	c #FAFAF8",
"x 	c #F6DBD2",
"y 	c #E59D89",
"z 	c #AC6F5E",
"A 	c #664238",
"B 	c #69433A",
"C 	c #C57E6C",
"D 	c #BF7E6C",
"E 	c #E9D3CC",
"F 	c #FEFEFC",
"G 	c #F7DCD4",
"H 	c #DE927D",
"I 	c #9D6656",
"J 	c #472E27",
"K 	c #CC8370",
"L 	c #BE7B69",
"M 	c #D3B3A8",
"N 	c #FCFBF9",
"O 	c #FEFEFB",
"P 	c #F4C9BD",
"Q 	c #C9826E",
"R 	c #8A5A4C",
"S 	c #CB8370",
"T 	c #B98272",
"U 	c #D5CDCA",
"V 	c #F1F1F0",
"W 	c #D8CFCC",
"X 	c #E69E8A",
"Y 	c #A66B5A",
"Z 	c #B17161",
"` 	c #C07C69",
" .	c #D0ACA0",
"..	c #F5C5B6",
"+.	c #BF7B68",
"@.	c #7A5042",
"#.	c #D18672",
"$.	c #B67564",
"%.	c #E4D3CD",
"&.	c #F8E3DC",
"*.	c #D38874",
"=.	c #A36959",
"-.	c #D48874",
";.	c #A76D5B",
">.	c #EFE9E5",
",.	c #F6F5F3",
"'.	c #F6EDE9",
").	c #D78B76",
"!.	c #A96E5C",
"~.	c #A36B59",
"{.	c #CCC9C8",
"].	c #A1A09E",
"^.	c #F0F0EE",
"/.	c #B7B6B5",
"(.	c #B8B7B6",
"_.	c #CFC9C7",
":.	c #DB8D77",
"<.	c #D98B76",
"[.	c #9F6857",
"}.	c #EEE8E5",
"|.	c #8A8A8B",
"1.	c #8C8C8C",
"2.	c #F7EFEC",
"3.	c #D38773",
"4.	c #AF725E",
"5.	c #DF907A",
"6.	c #B07160",
"7.	c #DCD1CD",
"8.	c #F5DFD8",
"9.	c #CD8470",
"0.	c #AE715F",
"a.	c #C27D6A",
"b.	c #C07C6A",
"c.	c #C3A49B",
"d.	c #F9F9F7",
"e.	c #E8BCAF",
"f.	c #C37D6B",
"g.	c #8D5B4D",
"h.	c #A27365",
"i.	c #CECAC8",
"j.	c #F1F1EF",
"k.	c #D2CECC",
"l.	c #D29280",
"m.	c #B67663",
"n.	c #E7957E",
"o.	c #B87764",
"p.	c #BFA8A1",
"q.	c #E2BEB3",
"r.	c #C57F6D",
"s.	c #A86D5B",
"t.	c #805346",
"u.	c #DD8E78",
"v.	c #A46D5E",
"w.	c #DAC8C2",
"x.	c #E7D5CF",
"y.	c #C2806F",
"z.	c #5B3C31",
"A.	c #B67563",
"B.	c #D28772",
"C.	c #A57465",
"D.	c #DBC7C0",
"E.	c #ACACAC",
"F.	c #B0ADAC",
"G.	c #E6D2CC",
"H.	c #C48574",
"I.	c #89594B",
"J.	c #AC6F5D",
"K.	c #D38872",
"L.	c #A66D5E",
"M.	c #BDA49D",
"N.	c #D3CDCA",
"O.	c #C7C6C4",
"P.	c #C8C6C4",
"Q.	c #D4D1CF",
"R.	c #D0B0A6",
"S.	c #BB7C6B",
"T.	c #E2927B",
"U.	c #BC7A67",
"V.	c #A27163",
"W.	c #BEA096",
"X.	c #DDCEC8",
"Y.	c #F0ECEA",
"Z.	c #DCDAD8",
"`.	c #F2ECE9",
" +	c #E3D1CA",
".+	c #C9A79D",
"++	c #B67F70",
"@+	c #C8816E",
"#+	c #8D5A4D",
"$+	c #E0917A",
"%+	c #E0907A",
"&+	c #C07F6B",
"*+	c #B57665",
"=+	c #A66F5E",
"-+	c #9D6B5A",
";+	c #A26E5D",
">+	c #AE7363",
",+	c #B97867",
"'+	c #C47E6C",
")+	c #CE8471",
"!+	c #9F6756",
"~+	c #E4937D",
"{+	c #D68974",
"]+	c #D58874",
"^+	c #D28773",
"/+	c #915D4F",
"                . + @ @ # $ % &                 ",
"            * = - ; > , ' ) ! ~ { ]             ",
"        ^ / ( _ : < [ } } | 1 2 3 4 5 6         ",
"      7 8 9 0 a b c d e e d c b f g h i j       ",
"    k l m n o p q r s t u s c v w o x y z A     ",
"  B C D E c F F F c c c c c c c c c c G H I J   ",
"  K L M N F F F F c c F c c c c c O F o P Q R   ",
"  S T U V F F F F c c r c c c c c c F V W X Y   ",
"Z `  .s c F F F F c c r c O c c c c F c s ..+.@.",
"#.$.%.F F F F F F c c c c c c r c r F F F &.*.=.",
"-.;.>.,.c F F F F c c v v c c r c c F c ,.'.).!.",
"-.~.{.].^.F F F F c c /.(.c r r c r F ^.]._.:.@ ",
"<.[.}.,.c F F F F c c |.1.c r c c c F c ,.2.3.4.",
"5.6.7.F F F F F F c c |.|.c c c c c F F F 8.9.0.",
"a.b.c.d.c F F F F c c |.|.c c c c c F c s e.f.g.",
"  :.h.i.j.c c c c c c |.|.c c c c c c j.k.l.m.  ",
"  n.o.p.q c c c c c c |.|.c c c c c c N q.r.s.  ",
"  t.u.v.w.c c c c c c |.|.c c c c c c x.y.o.z.  ",
"    A.B.C.D.v w v c c E.F.c c v w o G.H.f.I.    ",
"      J.K.L.M.N.b c c O.P.c c b Q.R.S.f.7       ",
"        $ T.U.V.W.X.Y.Z.Z.`. +.+++b.@+#+        ",
"            $+%+&+*+=+-+;+>+,+'+)+a.            ",
"                !+~+<.{+]+]+^+/+                "};
